<?xml version="1.0" encoding="iso-8859-1"?>
<!-- Generator: Adobe Illustrator 19.0.0, SVG Export Plug-In . SVG Version: 6.00 Build 0)  -->
<svg version="1.1" id="Layer_1" xmlns="http://www.w3.org/2000/svg" xmlns:xlink="http://www.w3.org/1999/xlink" x="0px" y="0px"
	 viewBox="0 0 512 512" style="enable-background:new 0 0 512 512;" xml:space="preserve">
<g>
	<g>
		<path d="M256.001,64.372C150.337,64.372,64.373,150.336,64.373,256s85.964,191.628,191.628,191.628S447.629,361.664,447.629,256
			S361.665,64.372,256.001,64.372z M398.183,180.645l11.64,28.102l-31.783,13.165l-11.64-28.102L398.183,180.645z M358.523,131.97
			l21.508,21.508l-24.325,24.326l-21.508-21.508L358.523,131.97z M303.254,102.176l28.102,11.64l-13.165,31.783l-28.102-11.64
			L303.254,102.176z M113.818,180.645l31.783,13.165l-11.64,28.102l-31.783-13.165L113.818,180.645z M95.804,240.791h34.402v30.417
			H95.804V240.791z M113.818,331.355l-11.64-28.102l31.783-13.165l11.64,28.102L113.818,331.355z M153.479,380.03l-21.508-21.508
			l24.325-24.326l21.508,21.508L153.479,380.03z M156.296,177.803l-24.325-24.326l21.508-21.508l24.325,24.326L156.296,177.803z
			 M208.747,409.823l-28.102-11.64l13.165-31.783l28.102,11.64L208.747,409.823z M193.81,145.6l-13.165-31.783l28.102-11.64
			l13.165,31.783L193.81,145.6z M271.21,416.197h-30.417v-34.402h30.417V416.197z M303.254,409.823L290.09,378.04l28.102-11.64
			l13.165,31.783L303.254,409.823z M358.523,380.03l-24.325-24.326l21.508-21.508l24.325,24.326L358.523,380.03z M398.183,331.355
			L366.4,318.191l11.64-28.102l31.783,13.165L398.183,331.355z M240.792,271.209V95.803h30.417v144.988h144.988v30.417H240.792z"/>
	</g>
</g>
<g>
	<g>
		<path d="M437.02,74.98C388.668,26.628,324.381,0,256.001,0S123.334,26.628,74.982,74.98C26.631,123.333,0.001,187.619,0.001,256
			c0,68.381,26.629,132.668,74.98,181.02S187.62,512,256,512c68.38,0,132.667-26.628,181.019-74.98
			c48.351-48.352,74.98-112.639,74.98-181.02S485.371,123.333,437.02,74.98z M413.01,413.009
			c-41.939,41.938-97.699,65.036-157.009,65.036S140.93,454.949,98.992,413.009S33.956,315.31,33.956,256
			S57.052,140.929,98.992,98.991c41.939-41.938,97.699-65.036,157.009-65.036S371.072,57.051,413.01,98.991
			C454.949,140.93,478.046,196.69,478.046,256S454.95,371.071,413.01,413.009z"/>
	</g>
</g>
<g>
</g>
<g>
</g>
<g>
</g>
<g>
</g>
<g>
</g>
<g>
</g>
<g>
</g>
<g>
</g>
<g>
</g>
<g>
</g>
<g>
</g>
<g>
</g>
<g>
</g>
<g>
</g>
<g>
</g>
</svg>
